<svg xmlns="http://www.w3.org/2000/svg" width="1366" height="674" viewBox="0 0 1366 674">
  <defs>
    <filter id="shadow" x="-20%" y="-20%" width="140%" height="140%">
      <feDropShadow dx="0" dy="8" stdDeviation="12" flood-color="#000000" flood-opacity="0.12"/>
    </filter>
    <linearGradient id="bg" x1="0" x2="1" y1="0" y2="1">
      <stop offset="0" stop-color="#ffffff"/>
      <stop offset="1" stop-color="#f6f5f2"/>
    </linearGradient>
  </defs>
  <rect width="1366" height="674" fill="url(#bg)"/>
  <path d="M0 0h1366v54c-174 0-316 30-485 30H0z" fill="#faf9f6"/>

  <g filter="url(#shadow)">
    <rect x="64" y="70" width="766" height="238" rx="4" fill="#fff"/>
    <text x="84" y="112" font-family="Arial, sans-serif" font-size="24" fill="#111">Thank You for Your Payment!</text>
    <text x="84" y="140" font-family="Arial, sans-serif" font-size="14" fill="#111">Your payment has been applied successfully!</text>

    <text x="84" y="188" font-family="Arial, sans-serif" font-size="16" font-weight="700" fill="#111">Tracking Number</text>
    <text x="222" y="188" font-family="Arial, sans-serif" font-size="16" fill="#111">: 1Z6A68T70401482485</text>
    <rect x="410" y="177" width="11" height="11" fill="none" stroke="#3478a8" stroke-width="1.4"/>
    <rect x="414" y="173" width="11" height="11" fill="none" stroke="#3478a8" stroke-width="1.4"/>
    <text x="434" y="188" font-family="Arial, sans-serif" font-size="13" fill="#3478a8">Copy</text>

    <text x="84" y="218" font-family="Arial, sans-serif" font-size="16" font-weight="700" fill="#111">Payment Confirmation Number</text>
    <text x="326" y="218" font-family="Arial, sans-serif" font-size="16" fill="#111">: 48M7327239014894T</text>

    <rect x="84" y="249" width="202" height="40" rx="20" fill="#ffc400"/>
    <text x="104" y="274" font-family="Arial, sans-serif" font-size="13" font-weight="700" fill="#111">View My Choice Package  ›</text>
    <rect x="301" y="249" width="150" height="40" rx="20" fill="#fff" stroke="#1b6b89"/>
    <text x="322" y="274" font-family="Arial, sans-serif" font-size="13" fill="#1b6b89">Change Delivery  ›</text>
    <text x="465" y="277" font-family="Arial, sans-serif" font-size="13" fill="#1b6b89">▣ Print Receipt</text>

    <g transform="translate(700 109)">
      <rect x="8" y="51" width="52" height="39" fill="#c6892d"/>
      <rect x="27" y="28" width="35" height="41" fill="#d8a85d"/>
      <rect x="42" y="8" width="24" height="45" fill="none" stroke="#a57435" stroke-width="5"/>
      <rect x="0" y="70" width="30" height="40" fill="#9d6b2e"/>
      <circle cx="74" cy="112" r="8" fill="#3b2a1c"/>
      <circle cx="17" cy="112" r="8" fill="#3b2a1c"/>
    </g>
  </g>

  <g filter="url(#shadow)">
    <rect x="64" y="328" width="766" height="271" rx="4" fill="#fff"/>
    <text x="84" y="389" font-family="Arial, sans-serif" font-size="14" font-weight="700" fill="#111">Shipment Details</text>
    <line x1="84" y1="398" x2="434" y2="398" stroke="#d9d9d9"/>
    <text x="84" y="426" font-family="Arial, sans-serif" font-size="14" font-weight="700" fill="#111">Shipper Information</text>
    <text x="84" y="448" font-family="Arial, sans-serif" font-size="14" fill="#111">SZ ZHONGXIANG TECH</text>
    <text x="84" y="468" font-family="Arial, sans-serif" font-size="14" fill="#111">SHENZHEN, CN  518129</text>
    <text x="84" y="502" font-family="Arial, sans-serif" font-size="14" font-weight="700" fill="#111">Invoice Number</text>
    <text x="84" y="521" font-family="Arial, sans-serif" font-size="14" fill="#111">0184994207</text>
    <text x="84" y="554" font-family="Arial, sans-serif" font-size="14" font-weight="700" fill="#111">Import Date</text>
    <text x="84" y="574" font-family="Arial, sans-serif" font-size="14" fill="#111">05/25/2026</text>

    <text x="460" y="389" font-family="Arial, sans-serif" font-size="14" font-weight="700" fill="#111">Payment</text>
    <line x1="460" y1="398" x2="810" y2="398" stroke="#d9d9d9"/>
    <text x="465" y="426" font-family="Arial, sans-serif" font-size="14" fill="#111">Billing and Charges to:</text>
    <text x="486" y="448" font-family="Arial, sans-serif" font-size="14" fill="#111">PAYPAL (PayPal)</text>
  </g>

  <g filter="url(#shadow)">
    <rect x="842" y="69" width="396" height="187" rx="4" fill="#fff"/>
    <rect x="830" y="57" width="428" height="206" fill="none" stroke="#ff00e6" stroke-width="3"/>
    <text x="869" y="112" font-family="Arial, sans-serif" font-size="15" font-weight="700" fill="#111">Total Paid (MXN):</text>
    <text x="1122" y="112" font-family="Arial, sans-serif" font-size="16" font-weight="700" fill="#111">MX$945.60</text>
    <text x="869" y="149" font-family="Arial, sans-serif" font-size="14" fill="#111">Import Charges</text>
    <line x1="869" y1="159" x2="1210" y2="159" stroke="#d6d6d6"/>
    <text x="869" y="176" font-family="Arial, sans-serif" font-size="13" fill="#111">Government Charges:</text>
    <text x="1142" y="176" font-family="Arial, sans-serif" font-size="13" fill="#111">MX$566.00</text>
    <text x="869" y="199" font-family="Arial, sans-serif" font-size="13" fill="#111">UPS Brokerage and Partner Government</text>
    <text x="1142" y="199" font-family="Arial, sans-serif" font-size="13" fill="#111">MX$327.24</text>
    <text x="869" y="220" font-family="Arial, sans-serif" font-size="13" fill="#111">Agency Fees:</text>
  </g>
</svg>
